<?xml version="1.0" encoding="utf-8"?><svg xml:space="preserve" viewBox="0 0 100 100" y="0" x="0" xmlns="http://www.w3.org/2000/svg" id="圖層_1" version="1.1" width="200px" height="200px" xmlns:xlink="http://www.w3.org/1999/xlink" style="width:100%;height:100%;background-size:initial;background-repeat-y:initial;background-repeat-x:initial;background-position-y:initial;background-position-x:initial;background-origin:initial;background-color:initial;background-clip:initial;background-attachment:initial;animation-play-state:paused" ><g class="ldl-scale" style="transform-origin:50% 50%;transform:rotate(0deg) scale(0.8, 0.8);animation-play-state:paused" ><circle fill="#333" r="40" cy="50" cx="50" style="fill:rgb(76, 77, 255);animation-play-state:paused" ></circle>
<circle fill="#333" r="40" cy="50" cx="50" style="fill:rgb(76, 77, 255);animation-play-state:paused" ></circle>
<path fill="#fff" d="M67.681 55.133c-.037-.033-.079-.057-.118-.088l-.013-19.926v-7.172a1.946 1.946 0 0 0-2.271-1.919l-26.426 4.471a1.947 1.947 0 0 0-1.622 1.919v28.536c-1.184.609-2.361 1.513-3.396 2.687-2.963 3.361-3.642 7.604-1.517 9.477 2.125 1.873 6.249.667 9.212-2.694 2.963-3.361 3.642-7.604 1.517-9.477-.037-.033-.079-.057-.118-.088v-20.89l18.934-3.203V55.14c-1.184.609-2.361 1.513-3.396 2.687-2.963 3.361-3.642 7.604-1.517 9.477s6.249.667 9.212-2.694c2.965-3.36 3.644-7.604 1.519-9.477z" style="fill:rgb(255, 255, 255);animation-play-state:paused" ></path>
<metadata xmlns:d="https://loading.io/stock/" style="animation-play-state:paused" ><d:name style="animation-play-state:paused" >music</d:name>
<d:tags style="animation-play-state:paused" >music,song,rhythm,play,sing,karaoke,listen,beat,dance</d:tags>
<d:license style="animation-play-state:paused" >by</d:license>
<d:slug style="animation-play-state:paused" >pt6s51</d:slug></metadata></g><!-- generated by https://loading.io/ --></svg>